<?xml version="1.0" encoding="utf-8"?>
<!-- Generator: Adobe Illustrator 26.4.0, SVG Export Plug-In . SVG Version: 6.00 Build 0)  -->
<svg version="1.1" id="Layer_1" xmlns="http://www.w3.org/2000/svg" xmlns:xlink="http://www.w3.org/1999/xlink" x="0px" y="0px"
	 viewBox="0 0 3484.9 595.3" style="enable-background:new 0 0 3484.9 595.3;" xml:space="preserve">
<style type="text/css">
	.st0{fill:#01D639;}
	.st1{fill:#FFFFFF;}
</style>
<g>
	<path class="st0" d="M601.3,285.3c-0.2,18.1-2.6,32.6-12.4,44.8c-4.5,5.7-10.5,8.7-17.9,7.6c-12.4-2-19.1-14.4-12.7-25.2
		c15.2-25.7,3-62.8-31.2-71.1c-19.3-4.7-39.6,0.3-52.4,16.9c-11.6,15-13.2,36.9-3.5,53c6.8,11.3,17.6,18,29.4,22.8
		c15.8,6.5,32.1,11.8,47.9,18.3c15.6,6.4,30.1,14.9,40.3,29c16.8,23.2,17.2,59.1,0.3,84.8c-18.8,28.4-46.5,39.1-79.4,37.2
		c-28.8-1.6-52.5-13.8-69.1-37.9c-9.6-14-14.1-29.7-11.7-46.8c1.4-9.6,8.1-15.2,17.4-15.3c9.5-0.1,15.9,4.9,18,14.5
		c1.2,5.8,1.3,11.9,2.9,17.6c5.5,19.7,23.6,33.6,44.1,34.7c11.5,0.6,22.6-0.9,32.7-6.7c25.6-14.8,31.3-55.6-2.3-73
		c-12.9-6.7-27.1-10.6-40.5-16.4c-13.5-5.8-27.5-11.1-40-18.8c-24.6-15.3-34.2-39.2-32.8-67.3c1.7-34.3,17.9-59.9,49.5-74.1
		c43-19.3,99.7-0.4,118.1,45.3C599.5,268.5,601.6,278.2,601.3,285.3z"/>
	<path class="st0" d="M132.5,376.1c-26.9-1.5-53.9-13.2-69.9-42.8c-11.5-21.3-11.6-43.7-1.1-65.7c1.9-3.9,4.9-7.6,8.2-10.5
		c6.4-5.7,15.4-5.7,22.1-0.7c6,4.5,8,12.9,4.4,20.7c-3.5,7.5-5.7,15.1-5.2,23.6c1.4,21.7,17.8,39.3,39.5,41.5
		c14.9,1.6,28.9-0.5,40.2-11.6c17.7-17.3,16.1-46.9-3.6-62c-11.1-8.5-24.2-13-36.9-18.2c-14.1-5.8-28.5-11.2-41.6-18.8
		c-27.1-15.7-36.8-40.6-33.9-71.1c3-31.5,27.2-59.5,60.1-66.3c34.8-7.1,65.1,1,88.5,28.8c10.7,12.6,15.4,27.9,15.8,44.3
		c0.3,11.1-6.9,18.8-17.3,19.2c-10.7,0.4-18.3-6.8-18.8-18.2c-1.6-33.1-33.7-48-58.4-42.5c-26.3,5.9-40,30.1-31.3,55.7
		c4.2,12.3,14.1,19.6,25.3,24.8c14.3,6.5,29.1,12,43.7,18.1c12.7,5.3,25,11.5,35.4,20.9c12.9,11.6,19.8,26.2,21.4,43.2
		c3.5,36-13.1,65-45.6,80.5C164.4,373.3,150.4,376.1,132.5,376.1z"/>
	<path class="st0" d="M735.1,307.5c-8.5,0-17,0.1-25.5,0c-6.9-0.1-12.9-2.1-16.3-8.5c-5.5-10.2,1.7-22.1,14-22.5
		c11.6-0.4,23.3-0.1,35-0.1c8.8,0,11.2-3.5,7.8-12c-4.3-10.8-12.7-17.2-23.1-21.3c-29.8-11.7-60.6,3.8-69.2,34.6
		c-8.9,31.9,14.6,63.8,47.7,64.9c16.1,0.5,30.3-4.4,43.6-13.1c6-3.9,12.2-7.3,20-5.3c9.6,2.4,14.8,12.5,10.4,21.4
		c-4.1,8.3-11.4,13.5-19.3,17.4c-33.4,16.9-67.4,19.7-100.2-0.4c-30.2-18.5-44.4-46.6-39.8-81.9c4.7-35.7,25.5-59.6,60-70.4
		c34.1-10.6,72.2,1.1,93.1,27.8c9.4,12,14,25.7,14.7,41c0.9,20.2-12.9,27.7-27,28.2c-8.6,0.3-17.3,0.1-26,0.1
		C735.1,307.4,735.1,307.4,735.1,307.5z"/>
	<path class="st0" d="M410,322.5c0,11.8,0.2,23.6,0,35.4c-0.2,9.6-6,16.4-14.9,18c-9,1.6-18-3.2-20.9-11.5c-0.9-2.4-1.1-5.2-1.1-7.8
		c-0.1-20,0-39.9-0.1-59.9c-0.1-13.4-2.7-26.2-10.6-37.3c-17.2-24-52.1-26.5-72.9-5.4c-24.4,24.6-18.1,67.6,12.2,83
		c9.5,4.8,19.5,6.2,30.1,4.1c6.5-1.3,13.1-2.9,19.4,1c10.1,6.4,10.9,19,1.5,26.3c-6.4,5-14.2,6.7-21.9,7.4
		c-54.1,4.7-99.6-41.1-92.1-95.6c4.8-35,29.6-63.3,63.9-71.1c53.3-12.2,101.7,19.8,106.9,75.6c1.2,12.5,0.2,25.3,0.2,37.9
		C409.6,322.5,409.8,322.5,410,322.5z"/>
</g>
<g>
	<path class="st1" d="M1122.2,380.1h-22.3V210.8h22.3V380.1z"/>
	<path class="st1" d="M1180,254.3l0.7,15.8c9.6-12.1,22.2-18.1,37.7-18.1c26.6,0,40,15,40.2,45v83.2h-21.5v-83.3
		c-0.1-9.1-2.2-15.8-6.2-20.1c-4.1-4.3-10.4-6.5-19-6.5c-7,0-13.1,1.9-18.4,5.6c-5.3,3.7-9.4,8.6-12.3,14.7v89.7h-21.5V254.3H1180z"
		/>
	<path class="st1" d="M1320.2,223.8v30.5h23.5v16.6h-23.5v78.1c0,5,1,8.8,3.1,11.4c2.1,2.5,5.7,3.8,10.7,3.8c2.5,0,5.9-0.5,10.2-1.4
		v17.3c-5.7,1.5-11.2,2.3-16.5,2.3c-9.6,0-16.9-2.9-21.7-8.7c-4.9-5.8-7.3-14.1-7.3-24.8v-78h-22.9v-16.6h22.9v-30.5H1320.2z"/>
	<path class="st1" d="M1446.6,380.1c-1.2-2.5-2.2-6.9-3-13.3c-10,10.4-21.9,15.6-35.8,15.6c-12.4,0-22.6-3.5-30.5-10.5
		c-7.9-7-11.9-15.9-11.9-26.7c0-13.1,5-23.3,14.9-30.5c10-7.2,24-10.9,42-10.9h20.9v-9.9c0-7.5-2.3-13.5-6.7-18
		c-4.5-4.5-11.1-6.7-19.9-6.7c-7.7,0-14.1,1.9-19.3,5.8c-5.2,3.9-7.8,8.6-7.8,14.1h-21.6c0-6.3,2.2-12.3,6.7-18.2
		c4.5-5.9,10.5-10.5,18.1-13.9c7.6-3.4,16-5.1,25.2-5.1c14.5,0,25.9,3.6,34.1,10.9c8.2,7.3,12.5,17.2,12.8,29.9v57.9
		c0,11.6,1.5,20.7,4.4,27.6v1.9H1446.6z M1410.8,363.7c6.7,0,13.1-1.7,19.2-5.2c6-3.5,10.4-8,13.1-13.6v-25.8h-16.9
		c-26.4,0-39.5,7.7-39.5,23.1c0,6.7,2.2,12,6.7,15.8C1398,361.8,1403.8,363.7,1410.8,363.7z"/>
	<path class="st1" d="M1548.9,364.9c7.7,0,14.4-2.3,20.1-7c5.7-4.7,8.9-10.5,9.5-17.4h20.4c-0.4,7.2-2.9,14.1-7.4,20.6
		c-4.6,6.5-10.7,11.7-18.3,15.6c-7.6,3.9-15.7,5.8-24.3,5.8c-17.1,0-30.8-5.7-40.9-17.2c-10.1-11.4-15.2-27.1-15.2-46.9v-3.6
		c0-12.3,2.2-23.1,6.7-32.7c4.5-9.5,11-16.9,19.4-22.2c8.4-5.3,18.4-7.9,29.8-7.9c14.1,0,25.8,4.2,35.2,12.7
		c9.3,8.5,14.3,19.4,14.9,32.9h-20.4c-0.6-8.1-3.7-14.8-9.2-20.1c-5.5-5.2-12.4-7.9-20.5-7.9c-10.9,0-19.4,3.9-25.4,11.8
		c-6,7.9-9,19.2-9,34.1v4.1c0,14.5,3,25.7,9,33.5C1529.3,361,1537.8,364.9,1548.9,364.9z"/>
	<path class="st1" d="M1673.6,364.9c7.7,0,14.4-2.3,20.1-7c5.7-4.7,8.9-10.5,9.5-17.4h20.4c-0.4,7.2-2.9,14.1-7.4,20.6
		c-4.6,6.5-10.7,11.7-18.3,15.6c-7.6,3.9-15.7,5.8-24.3,5.8c-17.1,0-30.8-5.7-40.9-17.2c-10.1-11.4-15.2-27.1-15.2-46.9v-3.6
		c0-12.3,2.2-23.1,6.7-32.7c4.5-9.5,11-16.9,19.4-22.2c8.4-5.3,18.4-7.9,29.8-7.9c14.1,0,25.8,4.2,35.2,12.7
		c9.3,8.5,14.3,19.4,14.9,32.9h-20.4c-0.6-8.1-3.7-14.8-9.2-20.1c-5.5-5.2-12.4-7.9-20.5-7.9c-10.9,0-19.4,3.9-25.4,11.8
		c-6,7.9-9,19.2-9,34.1v4.1c0,14.5,3,25.7,9,33.5C1654,361,1662.5,364.9,1673.6,364.9z"/>
	<path class="st1" d="M1777,223.8v30.5h23.5v16.6H1777v78.1c0,5,1,8.8,3.1,11.4c2.1,2.5,5.7,3.8,10.7,3.8c2.5,0,5.9-0.5,10.2-1.4
		v17.3c-5.7,1.5-11.2,2.3-16.5,2.3c-9.6,0-16.9-2.9-21.7-8.7c-4.9-5.8-7.3-14.1-7.3-24.8v-78h-22.9v-16.6h22.9v-30.5H1777z"/>
	<path class="st1" d="M1916.8,210.8l55.4,138.2l55.4-138.2h29v169.3h-22.3v-65.9l2.1-71.2l-55.6,137.1h-17.1l-55.5-136.8l2.2,70.8
		v65.9h-22.3V210.8H1916.8z"/>
	<path class="st1" d="M2170.2,380.1c-1.2-2.5-2.3-6.9-3-13.3c-10,10.4-21.9,15.6-35.8,15.6c-12.4,0-22.6-3.5-30.5-10.5
		c-7.9-7-11.9-15.9-11.9-26.7c0-13.1,5-23.3,14.9-30.5c10-7.2,24-10.9,42-10.9h20.9v-9.9c0-7.5-2.2-13.5-6.7-18
		c-4.5-4.5-11.1-6.7-19.9-6.7c-7.7,0-14.1,1.9-19.3,5.8c-5.2,3.9-7.8,8.6-7.8,14.1h-21.6c0-6.3,2.2-12.3,6.7-18.2
		c4.5-5.9,10.5-10.5,18.1-13.9c7.6-3.4,16-5.1,25.2-5.1c14.5,0,25.9,3.6,34.1,10.9c8.2,7.3,12.5,17.2,12.8,29.9v57.9
		c0,11.6,1.5,20.7,4.4,27.6v1.9H2170.2z M2134.5,363.7c6.7,0,13.1-1.7,19.2-5.2c6-3.5,10.4-8,13.1-13.6v-25.8H2150
		c-26.4,0-39.5,7.7-39.5,23.1c0,6.7,2.2,12,6.7,15.8C2121.7,361.8,2127.5,363.7,2134.5,363.7z"/>
	<path class="st1" d="M2242.5,254.3l0.7,15.8c9.6-12.1,22.2-18.1,37.7-18.1c26.6,0,40,15,40.2,45v83.2h-21.5v-83.3
		c-0.1-9.1-2.2-15.8-6.2-20.1c-4.1-4.3-10.4-6.5-19-6.5c-7,0-13.1,1.9-18.4,5.6c-5.3,3.7-9.4,8.6-12.3,14.7v89.7h-21.5V254.3H2242.5
		z"/>
	<path class="st1" d="M2431.2,367.7c-8.4,9.8-20.7,14.8-36.9,14.8c-13.4,0-23.6-3.9-30.6-11.7c-7-7.8-10.6-19.3-10.6-34.6v-81.9
		h21.5v81.3c0,19.1,7.8,28.6,23.3,28.6c16.4,0,27.4-6.1,32.8-18.4v-91.5h21.5v125.8h-20.5L2431.2,367.7z"/>
	<path class="st1" d="M2495.4,380.1V270.9h-19.9v-16.6h19.9v-12.9c0-13.5,3.6-23.9,10.8-31.3c7.2-7.4,17.4-11,30.6-11
		c5,0,9.9,0.7,14.8,2l-1.2,17.3c-3.6-0.7-7.5-1-11.6-1c-7,0-12.4,2-16.2,6.1c-3.8,4.1-5.7,9.9-5.7,17.6v13.3h26.9v16.6h-26.9v109.2
		H2495.4z"/>
	<path class="st1" d="M2645.2,380.1c-1.2-2.5-2.2-6.9-3-13.3c-10,10.4-21.9,15.6-35.8,15.6c-12.4,0-22.6-3.5-30.5-10.5
		c-7.9-7-11.9-15.9-11.9-26.7c0-13.1,5-23.3,14.9-30.5c10-7.2,24-10.9,42-10.9h20.9v-9.9c0-7.5-2.2-13.5-6.7-18
		c-4.5-4.5-11.1-6.7-19.9-6.7c-7.7,0-14.1,1.9-19.3,5.8c-5.2,3.9-7.8,8.6-7.8,14.1h-21.6c0-6.3,2.2-12.3,6.7-18.2
		c4.5-5.9,10.5-10.5,18.1-13.9c7.6-3.4,16-5.1,25.2-5.1c14.5,0,25.9,3.6,34.1,10.9c8.2,7.3,12.5,17.2,12.8,29.9v57.9
		c0,11.6,1.5,20.7,4.4,27.6v1.9H2645.2z M2609.5,363.7c6.7,0,13.1-1.7,19.2-5.2c6-3.5,10.4-8,13.1-13.6v-25.8H2625
		c-26.4,0-39.5,7.7-39.5,23.1c0,6.7,2.2,12,6.7,15.8C2596.7,361.8,2602.5,363.7,2609.5,363.7z"/>
	<path class="st1" d="M2747.6,364.9c7.7,0,14.4-2.3,20.1-7c5.7-4.7,8.9-10.5,9.5-17.4h20.4c-0.4,7.2-2.9,14.1-7.4,20.6
		c-4.6,6.5-10.7,11.7-18.3,15.6c-7.6,3.9-15.7,5.8-24.3,5.8c-17.1,0-30.8-5.7-40.9-17.2c-10.1-11.4-15.2-27.1-15.2-46.9v-3.6
		c0-12.3,2.2-23.1,6.7-32.7c4.5-9.5,11-16.9,19.4-22.2c8.4-5.3,18.4-7.9,29.8-7.9c14.1,0,25.8,4.2,35.2,12.7
		c9.3,8.5,14.3,19.4,14.9,32.9h-20.4c-0.6-8.1-3.7-14.8-9.2-20.1c-5.5-5.2-12.4-7.9-20.5-7.9c-10.9,0-19.4,3.9-25.4,11.8
		c-6,7.9-9,19.2-9,34.1v4.1c0,14.5,3,25.7,9,33.5C2728,361,2736.5,364.9,2747.6,364.9z"/>
	<path class="st1" d="M2851,223.8v30.5h23.5v16.6H2851v78.1c0,5,1,8.8,3.1,11.4c2.1,2.5,5.7,3.8,10.7,3.8c2.5,0,5.9-0.5,10.2-1.4
		v17.3c-5.7,1.5-11.2,2.3-16.5,2.3c-9.6,0-16.9-2.9-21.7-8.7c-4.9-5.8-7.3-14.1-7.3-24.8v-78h-22.9v-16.6h22.9v-30.5H2851z"/>
	<path class="st1" d="M2977.3,367.7c-8.4,9.8-20.7,14.8-36.9,14.8c-13.4,0-23.6-3.9-30.6-11.7c-7-7.8-10.6-19.3-10.6-34.6v-81.9
		h21.5v81.3c0,19.1,7.8,28.6,23.3,28.6c16.4,0,27.4-6.1,32.8-18.4v-91.5h21.5v125.8h-20.5L2977.3,367.7z"/>
	<path class="st1" d="M3091.7,273.6c-3.3-0.5-6.8-0.8-10.6-0.8c-14.1,0-23.7,6-28.7,18v89.3h-21.5V254.3h20.9l0.3,14.5
		c7.1-11.2,17.1-16.9,30-16.9c4.2,0,7.4,0.5,9.5,1.6V273.6z"/>
	<path class="st1" d="M3111.6,220.9c0-3.5,1.1-6.4,3.2-8.8c2.1-2.4,5.3-3.6,9.5-3.6c4.2,0,7.4,1.2,9.5,3.6c2.2,2.4,3.3,5.4,3.3,8.8
		c0,3.5-1.1,6.4-3.3,8.7c-2.2,2.3-5.4,3.5-9.5,3.5c-4.2,0-7.3-1.2-9.5-3.5C3112.7,227.3,3111.6,224.4,3111.6,220.9z M3134.9,380.1
		h-21.5V254.3h21.5V380.1z"/>
	<path class="st1" d="M3189.7,254.3l0.7,15.8c9.6-12.1,22.2-18.1,37.7-18.1c26.6,0,40,15,40.2,45v83.2h-21.5v-83.3
		c-0.1-9.1-2.2-15.8-6.2-20.1c-4.1-4.3-10.4-6.5-19-6.5c-7,0-13.1,1.9-18.4,5.6c-5.3,3.7-9.4,8.6-12.3,14.7v89.7h-21.5V254.3H3189.7
		z"/>
	<path class="st1" d="M3295.6,316.2c0-19.6,4.5-35.2,13.6-46.8c9.1-11.6,21.1-17.4,36.1-17.4c15.4,0,27.3,5.4,35.9,16.3l1-14h19.7
		v122.8c0,16.3-4.8,29.1-14.5,38.5c-9.7,9.4-22.6,14.1-38.9,14.1c-9.1,0-18-1.9-26.6-5.8c-8.7-3.9-15.3-9.2-19.9-15.9l11.2-12.9
		c9.2,11.4,20.5,17.1,33.8,17.1c10.5,0,18.6-2.9,24.5-8.8c5.9-5.9,8.8-14.2,8.8-24.9v-10.8c-8.6,9.9-20.4,14.9-35.2,14.9
		c-14.7,0-26.7-5.9-35.8-17.8C3300.2,352.8,3295.6,336.6,3295.6,316.2z M3317.3,318.6c0,14.2,2.9,25.3,8.7,33.4
		c5.8,8.1,14,12.2,24.4,12.2c13.6,0,23.5-6.2,29.9-18.5v-57.5c-6.6-12-16.5-18-29.7-18c-10.5,0-18.6,4.1-24.5,12.2
		C3320.2,290.6,3317.3,302.6,3317.3,318.6z"/>
</g>
</svg>
